<?xml version="1.0" encoding="utf-8"?>
<!-- Generator: Adobe Illustrator 16.0.0, SVG Export Plug-In . SVG Version: 6.00 Build 0)  -->
<!DOCTYPE svg PUBLIC "-//W3C//DTD SVG 1.1//EN" "http://www.w3.org/Graphics/SVG/1.1/DTD/svg11.dtd">
<svg version="1.1"
	 id="Layer_1" xmlns:dc="http://purl.org/dc/elements/1.1/" xmlns:cc="http://creativecommons.org/ns#" xmlns:rdf="http://www.w3.org/1999/02/22-rdf-syntax-ns#" xmlns:svg="http://www.w3.org/2000/svg" xmlns:sodipodi="http://sodipodi.sourceforge.net/DTD/sodipodi-0.dtd" xmlns:inkscape="http://www.inkscape.org/namespaces/inkscape"
	 xmlns="http://www.w3.org/2000/svg" xmlns:xlink="http://www.w3.org/1999/xlink" x="0px" y="0px" width="348.445px"
	 height="323.556px" viewBox="305.778 62.223 348.445 323.556" enable-background="new 305.778 62.223 348.445 323.556"
	 xml:space="preserve">
<g transform="translate(0,-1016.3622)">
	<path fill="#FFFFFF" d="M480,1402.141c57.928-52.016,116.127-103.73,174.223-155.556l-16.334-18.667L480,1368.696l-157.5-140.778
		l-16.722,18.667C363.597,1298.721,422.384,1349.778,480,1402.141z M480,1252.807c57.928-52.016,116.127-103.73,174.223-155.556
		l-16.334-18.667L480,1219.362l-157.5-140.777l-16.722,18.667C363.597,1149.387,422.384,1200.445,480,1252.807z"/>
</g>
<text transform="matrix(1 0 0 1 256 634.6641)" font-family="'HelveticaNeue-Bold'" font-size="62.2222">Created by arjuazka</text>
<text transform="matrix(1 0 0 1 256 696.8906)" font-family="'HelveticaNeue-Bold'" font-size="62.2222">from the Noun Project</text>
</svg>
